<svg xmlns="http://www.w3.org/2000/svg" width="170" height="145" viewBox="0 0 170 145" fill="none">
<path fill-rule="evenodd" clip-rule="evenodd" d="M97.7504 1.0759C104.519 -0.253697 111.508 -0.362841 118.418 0.814717C133.16 3.32685 146.503 11.5175 155.88 23.8111C165.257 36.1044 170.005 51.6319 169.211 67.4058C168.461 82.282 162.832 96.386 153.337 107.312L163.296 139L160.29 144.193L127.126 124.992C115.373 128.945 102.766 129 91 125.169C94.7057 123.751 98.2384 121.828 101.548 119.464C109.441 120.638 117.526 119.885 125.179 117.202L125.296 117L125.469 117.1C126.023 116.902 126.575 116.693 127.125 116.475L127.943 118.532L155.608 134.549L146.572 105.799L147.584 105.481L145.763 103.759C154.974 94.0153 160.519 80.9317 161.221 67.0033C161.922 53.074 157.723 39.4175 149.52 28.6628C141.325 17.9193 129.747 10.8605 117.074 8.70103C113.731 8.13133 110.364 7.9113 107.018 8.03235C104.14 5.33174 101.037 2.99503 97.7504 1.0759Z" fill="#5410A7"/>
<ellipse cx="76" cy="64.5" rx="45" ry="53.5" fill="#DD86EA"/>
<path fill-rule="evenodd" clip-rule="evenodd" d="M43.8278 117.1C43.2733 116.902 42.7212 116.693 42.1716 116.475L41.3536 118.532L13.6883 134.549L22.724 105.799L21.7123 105.481L23.5337 103.759C14.3225 94.0153 8.77727 80.9317 8.07565 67.0033C7.37397 53.074 11.5736 39.4175 19.7768 28.6628C27.9715 17.9193 39.5494 10.8605 52.2223 8.70103C64.8873 6.54286 77.8955 9.40278 88.7661 16.8133C99.6517 24.2341 107.66 35.7275 111.122 49.1613C114.586 62.5997 113.222 76.9145 107.325 89.3199C101.431 101.717 91.4711 111.252 79.4708 116.214C68.1269 120.906 55.6329 121.239 44.1171 117.202L44.0001 117L43.8278 117.1ZM42.1706 124.992C55.3454 129.423 69.5938 128.956 82.528 123.607C96.4353 117.856 107.841 106.867 114.55 92.7548C121.259 78.6427 122.797 62.4045 118.869 47.1646C114.941 31.9245 105.824 18.7598 93.2723 10.2032C80.7204 1.64647 65.6207 -1.69744 50.8784 0.814717C36.1362 3.32685 22.7929 11.5175 13.4159 23.8111C4.03914 36.1044 -0.708818 51.6319 0.0857758 67.4058C0.835149 82.282 6.46422 96.386 15.9591 107.312L6.00006 139L9.00627 144.193L42.1706 124.992Z" fill="#5410A7"/>
<ellipse cx="31.5" cy="64.5" rx="8.5" ry="7.5" fill="#5410A7"/>
<ellipse cx="76.5" cy="64.5" rx="8.5" ry="7.5" fill="#5410A7"/>
<ellipse cx="54.5" cy="64.5" rx="8.5" ry="7.5" fill="#5410A7"/>
</svg>

